solid Exported from Blender-2.82 (sub 7)
facet normal 0.052433 -0.161363 -0.985501
outer loop
vertex 0.000000 0.000000 -1.000000
vertex 0.221075 -0.160619 -0.961939
vertex -0.084442 -0.259889 -0.961939
endloop
endfacet
facet normal 0.722074 -0.401341 -0.563502
outer loop
vertex 0.723607 -0.525725 -0.447220
vertex 0.597197 -0.433883 -0.674615
vertex 0.818272 -0.273263 -0.505726
endloop
endfacet
facet normal -0.137266 -0.099727 -0.985501
outer loop
vertex 0.000000 0.000000 -1.000000
vertex -0.084442 -0.259889 -0.961939
vertex -0.273266 0.000000 -0.961938
endloop
endfacet
facet normal -0.137266 0.099727 -0.985501
outer loop
vertex 0.000000 0.000000 -1.000000
vertex -0.273266 0.000000 -0.961938
vertex -0.084442 0.259889 -0.961939
endloop
endfacet
facet normal 0.052433 0.161363 -0.985501
outer loop
vertex 0.000000 0.000000 -1.000000
vertex -0.084442 0.259889 -0.961939
vertex 0.221075 0.160619 -0.961939
endloop
endfacet
facet normal 0.826935 -0.401341 -0.393834
outer loop
vertex 0.723607 -0.525725 -0.447220
vertex 0.818272 -0.273263 -0.505726
vertex 0.870464 -0.433883 -0.232457
endloop
endfacet
facet normal -0.126155 -0.910481 -0.393840
outer loop
vertex -0.276388 -0.850649 -0.447220
vertex -0.007027 -0.862664 -0.505727
vertex -0.143662 -0.961938 -0.232458
endloop
endfacet
facet normal -0.904909 -0.161364 -0.393830
outer loop
vertex -0.894426 0.000000 -0.447216
vertex -0.822619 -0.259891 -0.505725
vertex -0.959252 -0.160619 -0.232455
endloop
endfacet
facet normal -0.433094 0.810753 -0.393838
outer loop
vertex -0.276388 0.850649 -0.447220
vertex -0.501372 0.702044 -0.505727
vertex -0.449184 0.862669 -0.232458
endloop
endfacet
facet normal 0.637242 0.662431 -0.393837
outer loop
vertex 0.723607 0.525725 -0.447220
vertex 0.512755 0.693775 -0.505727
vertex 0.681641 0.693778 -0.232458
endloop
endfacet
facet normal 0.774505 -0.562703 -0.288976
outer loop
vertex 0.723607 -0.525725 -0.447220
vertex 0.870464 -0.433883 -0.232457
vertex 0.681641 -0.693778 -0.232458
endloop
endfacet
facet normal -0.295831 -0.910481 -0.288978
outer loop
vertex -0.276388 -0.850649 -0.447220
vertex -0.143662 -0.961938 -0.232458
vertex -0.449184 -0.862669 -0.232458
endloop
endfacet
facet normal -0.957337 0.000000 -0.288972
outer loop
vertex -0.894426 0.000000 -0.447216
vertex -0.959252 -0.160619 -0.232455
vertex -0.959252 0.160619 -0.232455
endloop
endfacet
facet normal -0.295831 0.910481 -0.288978
outer loop
vertex -0.276388 0.850649 -0.447220
vertex -0.449184 0.862669 -0.232458
vertex -0.143662 0.961938 -0.232458
endloop
endfacet
facet normal 0.774505 0.562703 -0.288976
outer loop
vertex 0.723607 0.525725 -0.447220
vertex 0.681641 0.693778 -0.232458
vertex 0.870464 0.433883 -0.232457
endloop
endfacet
facet normal 0.348259 -0.749115 0.563509
outer loop
vertex 0.276388 -0.850649 0.447220
vertex 0.501372 -0.702044 0.505727
vertex 0.228104 -0.702043 0.674614
endloop
endfacet
facet normal -0.604839 -0.562704 0.563502
outer loop
vertex -0.723607 -0.525725 0.447220
vertex -0.512755 -0.693775 0.505727
vertex -0.597197 -0.433883 0.674615
endloop
endfacet
facet normal -0.722074 0.401341 0.563502
outer loop
vertex -0.723607 0.525725 0.447220
vertex -0.818272 0.273263 0.505726
vertex -0.597197 0.433883 0.674615
endloop
endfacet
facet normal 0.158561 0.810751 0.563508
outer loop
vertex 0.276388 0.850649 0.447220
vertex 0.007027 0.862664 0.505727
vertex 0.228104 0.702043 0.674614
endloop
endfacet
facet normal 0.820075 0.099727 0.563499
outer loop
vertex 0.894426 0.000000 0.447216
vertex 0.822619 0.259891 0.505725
vertex 0.738175 0.000000 0.674612
endloop
endfacet
facet normal 0.401384 0.098668 0.910580
outer loop
vertex 0.525730 0.000000 0.850652
vertex 0.361800 0.262863 0.894429
vertex 0.273266 0.000000 0.961938
endloop
endfacet
facet normal 0.516842 0.183045 0.836283
outer loop
vertex 0.525730 0.000000 0.850652
vertex 0.638195 0.262864 0.723610
vertex 0.361800 0.262863 0.894429
endloop
endfacet
facet normal 0.555626 0.573371 0.602101
outer loop
vertex 0.688189 0.499997 0.525736
vertex 0.501372 0.702044 0.505727
vertex 0.447211 0.525728 0.723612
endloop
endfacet
facet normal 0.030190 0.412227 0.910581
outer loop
vertex 0.162456 0.499995 0.850654
vertex -0.138197 0.425319 0.894429
vertex 0.084442 0.259889 0.961939
endloop
endfacet
facet normal -0.014377 0.548109 0.836283
outer loop
vertex 0.162456 0.499995 0.850654
vertex -0.052790 0.688186 0.723612
vertex -0.138197 0.425319 0.894429
endloop
endfacet
facet normal -0.373612 0.705612 0.602101
outer loop
vertex -0.262869 0.809012 0.525738
vertex -0.512755 0.693775 0.505727
vertex -0.361804 0.587780 0.723612
endloop
endfacet
facet normal -0.382720 0.156099 0.910581
outer loop
vertex -0.425323 0.309011 0.850654
vertex -0.447209 0.000000 0.894429
vertex -0.221075 0.160619 0.961939
endloop
endfacet
facet normal -0.525723 0.155703 0.836284
outer loop
vertex -0.425323 0.309011 0.850654
vertex -0.670818 0.162457 0.723612
vertex -0.447209 0.000000 0.894429
endloop
endfacet
facet normal -0.786533 -0.137277 0.602097
outer loop
vertex -0.850648 0.000000 0.525736
vertex -0.818272 -0.273263 0.505726
vertex -0.670818 -0.162457 0.723612
endloop
endfacet
facet normal -0.266729 -0.315749 0.910581
outer loop
vertex -0.425323 -0.309011 0.850654
vertex -0.138197 -0.425319 0.894429
vertex -0.221075 -0.160619 0.961939
endloop
endfacet
facet normal -0.310543 -0.451875 0.836285
outer loop
vertex -0.425323 -0.309011 0.850654
vertex -0.361804 -0.587780 0.723612
vertex -0.138197 -0.425319 0.894429
endloop
endfacet
facet normal -0.112492 -0.790457 0.602099
outer loop
vertex -0.262869 -0.809012 0.525738
vertex 0.007027 -0.862664 0.505727
vertex -0.052790 -0.688186 0.723612
endloop
endfacet
facet normal 0.217873 -0.351247 0.910581
outer loop
vertex 0.162456 -0.499995 0.850654
vertex 0.361800 -0.262863 0.894429
vertex 0.084442 -0.259889 0.961939
endloop
endfacet
facet normal 0.333797 -0.434983 0.836283
outer loop
vertex 0.162456 -0.499995 0.850654
vertex 0.447211 -0.525728 0.723612
vertex 0.361800 -0.262863 0.894429
endloop
endfacet
facet normal 0.717008 -0.351251 0.602098
outer loop
vertex 0.688189 -0.499997 0.525736
vertex 0.822618 -0.259891 0.505725
vertex 0.638195 -0.262864 0.723610
endloop
endfacet
facet normal 0.933734 0.315748 0.168652
outer loop
vertex 0.951058 0.309013 0.000000
vertex 0.861804 0.425322 0.276396
vertex 0.959252 0.160619 0.232455
endloop
endfacet
facet normal 0.886876 0.451873 0.096238
outer loop
vertex 0.951058 0.309013 0.000000
vertex 0.809021 0.587785 0.000000
vertex 0.861804 0.425322 0.276396
endloop
endfacet
facet normal 0.588837 0.790460 0.168652
outer loop
vertex 0.587786 0.809017 0.000000
vertex 0.449184 0.862669 0.232458
vertex 0.670820 0.688190 0.276396
endloop
endfacet
facet normal -0.011765 0.985605 0.168652
outer loop
vertex 0.000000 1.000000 0.000000
vertex -0.138198 0.951054 0.276397
vertex 0.143662 0.961938 0.232458
endloop
endfacet
facet normal -0.155714 0.983103 0.096234
outer loop
vertex 0.000000 1.000000 0.000000
vertex -0.309017 0.951055 0.000000
vertex -0.138198 0.951054 0.276397
endloop
endfacet
facet normal -0.569809 0.804285 0.168653
outer loop
vertex -0.587786 0.809017 0.000000
vertex -0.681641 0.693778 0.232458
vertex -0.447215 0.850648 0.276396
endloop
endfacet
facet normal -0.941002 0.293378 0.168655
outer loop
vertex -0.951058 0.309013 0.000000
vertex -0.947212 0.162457 0.276395
vertex -0.870464 0.433883 0.232457
endloop
endfacet
facet normal -0.983105 0.155702 0.096239
outer loop
vertex -0.951058 0.309013 0.000000
vertex -0.999998 0.000000 0.000000
vertex -0.947212 0.162457 0.276395
endloop
endfacet
facet normal -0.941002 -0.293378 0.168655
outer loop
vertex -0.951058 -0.309013 0.000000
vertex -0.870464 -0.433883 0.232457
vertex -0.947212 -0.162457 0.276395
endloop
endfacet
facet normal -0.569809 -0.804285 0.168653
outer loop
vertex -0.587786 -0.809017 0.000000
vertex -0.447215 -0.850648 0.276396
vertex -0.681641 -0.693778 0.232458
endloop
endfacet
facet normal -0.451878 -0.886874 0.096236
outer loop
vertex -0.587786 -0.809017 0.000000
vertex -0.309017 -0.951055 0.000000
vertex -0.447215 -0.850648 0.276396
endloop
endfacet
facet normal -0.011765 -0.985605 0.168652
outer loop
vertex 0.000000 -1.000000 0.000000
vertex 0.143662 -0.961938 0.232458
vertex -0.138198 -0.951054 0.276397
endloop
endfacet
facet normal 0.588837 -0.790460 0.168651
outer loop
vertex 0.587786 -0.809017 0.000000
vertex 0.670820 -0.688190 0.276396
vertex 0.449184 -0.862669 0.232458
endloop
endfacet
facet normal 0.703820 -0.703829 0.096238
outer loop
vertex 0.587786 -0.809017 0.000000
vertex 0.809021 -0.587785 0.000000
vertex 0.670820 -0.688190 0.276396
endloop
endfacet
facet normal 0.933734 -0.315748 0.168652
outer loop
vertex 0.951058 -0.309013 0.000000
vertex 0.959252 -0.160619 0.232455
vertex 0.861804 -0.425322 0.276396
endloop
endfacet
facet normal 0.453028 0.889130 0.064902
outer loop
vertex 0.587786 0.809017 0.000000
vertex 0.309017 0.951055 0.000000
vertex 0.449184 0.862669 0.232458
endloop
endfacet
facet normal 0.451878 0.886874 -0.096236
outer loop
vertex 0.587786 0.809017 0.000000
vertex 0.447215 0.850648 -0.276396
vertex 0.309017 0.951055 0.000000
endloop
endfacet
facet normal 0.144553 0.889126 -0.434235
outer loop
vertex 0.262869 0.809012 -0.525738
vertex -0.007027 0.862664 -0.505727
vertex 0.138198 0.951054 -0.276397
endloop
endfacet
facet normal -0.705611 0.705620 0.064911
outer loop
vertex -0.587786 0.809017 0.000000
vertex -0.809021 0.587785 0.000000
vertex -0.681641 0.693778 0.232458
endloop
endfacet
facet normal -0.703820 0.703829 -0.096238
outer loop
vertex -0.587786 0.809017 0.000000
vertex -0.670820 0.688190 -0.276396
vertex -0.809021 0.587785 0.000000
endloop
endfacet
facet normal -0.800940 0.412234 -0.434233
outer loop
vertex -0.688189 0.499997 -0.525736
vertex -0.822618 0.259891 -0.505725
vertex -0.861804 0.425322 -0.276396
endloop
endfacet
facet normal -0.889133 -0.453023 0.064914
outer loop
vertex -0.951058 -0.309013 0.000000
vertex -0.809021 -0.587785 0.000000
vertex -0.870464 -0.433883 0.232457
endloop
endfacet
facet normal -0.886876 -0.451873 -0.096238
outer loop
vertex -0.951058 -0.309013 0.000000
vertex -0.861804 -0.425322 -0.276396
vertex -0.809021 -0.587785 0.000000
endloop
endfacet
facet normal -0.639559 -0.634353 -0.434236
outer loop
vertex -0.688189 -0.499997 -0.525736
vertex -0.501372 -0.702044 -0.505727
vertex -0.670820 -0.688190 -0.276396
endloop
endfacet
facet normal 0.156110 -0.985605 0.064902
outer loop
vertex 0.000000 -1.000000 0.000000
vertex 0.309017 -0.951055 0.000000
vertex 0.143662 -0.961938 0.232458
endloop
endfacet
facet normal 0.155714 -0.983103 -0.096234
outer loop
vertex 0.000000 -1.000000 0.000000
vertex 0.138198 -0.951054 -0.276397
vertex 0.309017 -0.951055 0.000000
endloop
endfacet
facet normal 0.405673 -0.804285 -0.434229
outer loop
vertex 0.262869 -0.809012 -0.525738
vertex 0.512755 -0.693775 -0.505727
vertex 0.447215 -0.850648 -0.276396
endloop
endfacet
facet normal 0.985607 -0.156098 0.064907
outer loop
vertex 0.951058 -0.309013 0.000000
vertex 0.999998 0.000000 0.000000
vertex 0.959252 -0.160619 0.232455
endloop
endfacet
facet normal 0.983105 -0.155702 -0.096239
outer loop
vertex 0.951058 -0.309013 0.000000
vertex 0.947212 -0.162457 -0.276395
vertex 0.999998 0.000000 0.000000
endloop
endfacet
facet normal 0.890282 0.137276 -0.434228
outer loop
vertex 0.850648 0.000000 -0.525736
vertex 0.818272 0.273263 -0.505726
vertex 0.947212 0.162457 -0.276395
endloop
endfacet
facet normal 0.455675 0.453025 -0.766244
outer loop
vertex 0.425323 0.309011 -0.850654
vertex 0.361804 0.587780 -0.723612
vertex 0.597197 0.433883 -0.674615
endloop
endfacet
facet normal 0.310543 0.451875 -0.836285
outer loop
vertex 0.425323 0.309011 -0.850654
vertex 0.138197 0.425319 -0.894429
vertex 0.361804 0.587780 -0.723612
endloop
endfacet
facet normal -0.102365 0.634349 -0.766239
outer loop
vertex -0.162456 0.499995 -0.850654
vertex -0.228104 0.702043 -0.674614
vertex 0.052790 0.688186 -0.723612
endloop
endfacet
facet normal -0.290042 0.573370 -0.766239
outer loop
vertex -0.162456 0.499995 -0.850654
vertex -0.447211 0.525728 -0.723612
vertex -0.228104 0.702043 -0.674614
endloop
endfacet
facet normal -0.333797 0.434982 -0.836283
outer loop
vertex -0.162456 0.499995 -0.850654
vertex -0.361800 0.262863 -0.894429
vertex -0.447211 0.525728 -0.723612
endloop
endfacet
facet normal -0.634934 0.098668 -0.766240
outer loop
vertex -0.525730 0.000000 -0.850652
vertex -0.738175 0.000000 -0.674612
vertex -0.638195 0.262864 -0.723610
endloop
endfacet
facet normal -0.634934 -0.098668 -0.766240
outer loop
vertex -0.525730 0.000000 -0.850652
vertex -0.638195 -0.262864 -0.723610
vertex -0.738175 0.000000 -0.674612
endloop
endfacet
facet normal -0.516842 -0.183045 -0.836283
outer loop
vertex -0.525730 0.000000 -0.850652
vertex -0.361800 -0.262863 -0.894429
vertex -0.638195 -0.262864 -0.723610
endloop
endfacet
facet normal -0.290042 -0.573370 -0.766239
outer loop
vertex -0.162456 -0.499995 -0.850654
vertex -0.228104 -0.702043 -0.674614
vertex -0.447211 -0.525727 -0.723612
endloop
endfacet
facet normal 0.786533 0.137277 -0.602097
outer loop
vertex 0.850648 0.000000 -0.525736
vertex 0.670818 0.162457 -0.723612
vertex 0.818272 0.273263 -0.505726
endloop
endfacet
facet normal 0.740047 0.000000 -0.672555
outer loop
vertex 0.850648 0.000000 -0.525736
vertex 0.670818 -0.162457 -0.723612
vertex 0.670818 0.162457 -0.723612
endloop
endfacet
facet normal 0.382720 -0.156099 -0.910581
outer loop
vertex 0.425323 -0.309011 -0.850654
vertex 0.221075 -0.160619 -0.961939
vertex 0.447209 0.000000 -0.894429
endloop
endfacet
facet normal -0.102365 -0.634349 -0.766239
outer loop
vertex -0.162456 -0.499995 -0.850654
vertex 0.052790 -0.688186 -0.723612
vertex -0.228104 -0.702043 -0.674614
endloop
endfacet
facet normal 0.014377 -0.548109 -0.836283
outer loop
vertex -0.162456 -0.499995 -0.850654
vertex 0.138197 -0.425319 -0.894429
vertex 0.052790 -0.688186 -0.723612
endloop
endfacet
facet normal 0.455675 -0.453025 -0.766243
outer loop
vertex 0.425323 -0.309011 -0.850654
vertex 0.597197 -0.433883 -0.674615
vertex 0.361804 -0.587780 -0.723612
endloop
endfacet
facet normal 0.373612 -0.705612 -0.602101
outer loop
vertex 0.361804 -0.587780 -0.723612
vertex 0.512755 -0.693775 -0.505727
vertex 0.262869 -0.809012 -0.525738
endloop
endfacet
facet normal 0.510798 -0.578955 -0.635528
outer loop
vertex 0.361804 -0.587780 -0.723612
vertex 0.597197 -0.433883 -0.674615
vertex 0.512755 -0.693775 -0.505727
endloop
endfacet
facet normal 0.604839 -0.562704 -0.563502
outer loop
vertex 0.597197 -0.433883 -0.674615
vertex 0.723607 -0.525725 -0.447220
vertex 0.512755 -0.693775 -0.505727
endloop
endfacet
facet normal 0.228688 -0.703822 -0.672560
outer loop
vertex 0.052790 -0.688186 -0.723612
vertex 0.361804 -0.587780 -0.723612
vertex 0.262869 -0.809012 -0.525738
endloop
endfacet
facet normal 0.187591 -0.577340 -0.794662
outer loop
vertex 0.052790 -0.688186 -0.723612
vertex 0.138197 -0.425319 -0.894429
vertex 0.361804 -0.587780 -0.723612
endloop
endfacet
facet normal 0.310543 -0.451875 -0.836285
outer loop
vertex 0.138197 -0.425319 -0.894429
vertex 0.425323 -0.309011 -0.850654
vertex 0.361804 -0.587780 -0.723612
endloop
endfacet
facet normal -0.158561 -0.810751 -0.563508
outer loop
vertex -0.228104 -0.702043 -0.674614
vertex -0.007027 -0.862664 -0.505727
vertex -0.276388 -0.850649 -0.447220
endloop
endfacet
facet normal -0.072939 -0.768626 -0.635526
outer loop
vertex -0.228104 -0.702043 -0.674614
vertex 0.052790 -0.688186 -0.723612
vertex -0.007027 -0.862664 -0.505727
endloop
endfacet
facet normal 0.112492 -0.790457 -0.602099
outer loop
vertex 0.052790 -0.688186 -0.723612
vertex 0.262869 -0.809012 -0.525738
vertex -0.007027 -0.862664 -0.505727
endloop
endfacet
facet normal 0.382720 0.156099 -0.910581
outer loop
vertex 0.447209 0.000000 -0.894429
vertex 0.221075 0.160619 -0.961939
vertex 0.425323 0.309011 -0.850654
endloop
endfacet
facet normal 0.286064 0.000000 -0.958211
outer loop
vertex 0.447209 0.000000 -0.894429
vertex 0.221075 -0.160619 -0.961939
vertex 0.221075 0.160619 -0.961939
endloop
endfacet
facet normal 0.169669 0.000000 -0.985501
outer loop
vertex 0.221075 -0.160619 -0.961939
vertex 0.000000 0.000000 -1.000000
vertex 0.221075 0.160619 -0.961939
endloop
endfacet
facet normal 0.525722 0.155703 -0.836285
outer loop
vertex 0.670818 0.162457 -0.723612
vertex 0.447209 0.000000 -0.894429
vertex 0.425323 0.309011 -0.850654
endloop
endfacet
facet normal 0.607050 0.000000 -0.794664
outer loop
vertex 0.670818 0.162457 -0.723612
vertex 0.670818 -0.162457 -0.723612
vertex 0.447209 0.000000 -0.894429
endloop
endfacet
facet normal 0.525723 -0.155703 -0.836285
outer loop
vertex 0.670818 -0.162457 -0.723612
vertex 0.425323 -0.309011 -0.850654
vertex 0.447209 0.000000 -0.894429
endloop
endfacet
facet normal 0.722075 0.401341 -0.563502
outer loop
vertex 0.818272 0.273263 -0.505726
vertex 0.597197 0.433883 -0.674615
vertex 0.723607 0.525725 -0.447220
endloop
endfacet
facet normal 0.708471 0.306887 -0.635523
outer loop
vertex 0.818272 0.273263 -0.505726
vertex 0.670818 0.162457 -0.723612
vertex 0.597197 0.433883 -0.674615
endloop
endfacet
facet normal 0.571665 0.293377 -0.766244
outer loop
vertex 0.670818 0.162457 -0.723612
vertex 0.425323 0.309011 -0.850654
vertex 0.597197 0.433883 -0.674615
endloop
endfacet
facet normal -0.555626 -0.573371 -0.602101
outer loop
vertex -0.447211 -0.525727 -0.723612
vertex -0.501372 -0.702044 -0.505727
vertex -0.688189 -0.499997 -0.525736
endloop
endfacet
facet normal -0.392770 -0.664706 -0.635529
outer loop
vertex -0.447211 -0.525727 -0.723612
vertex -0.228104 -0.702043 -0.674614
vertex -0.501372 -0.702044 -0.505727
endloop
endfacet
facet normal -0.348259 -0.749115 -0.563508
outer loop
vertex -0.228104 -0.702043 -0.674614
vertex -0.276388 -0.850649 -0.447220
vertex -0.501372 -0.702044 -0.505727
endloop
endfacet
facet normal -0.598706 -0.434989 -0.672559
outer loop
vertex -0.638195 -0.262864 -0.723610
vertex -0.447211 -0.525727 -0.723612
vertex -0.688189 -0.499997 -0.525736
endloop
endfacet
facet normal -0.491117 -0.356818 -0.794660
outer loop
vertex -0.638195 -0.262864 -0.723610
vertex -0.361800 -0.262863 -0.894429
vertex -0.447211 -0.525727 -0.723612
endloop
endfacet
facet normal -0.333797 -0.434983 -0.836283
outer loop
vertex -0.361800 -0.262863 -0.894429
vertex -0.162456 -0.499995 -0.850654
vertex -0.447211 -0.525727 -0.723612
endloop
endfacet
facet normal -0.820075 -0.099727 -0.563499
outer loop
vertex -0.738175 0.000000 -0.674612
vertex -0.822619 -0.259891 -0.505725
vertex -0.894426 0.000000 -0.447216
endloop
endfacet
facet normal -0.753547 -0.168148 -0.635526
outer loop
vertex -0.738175 0.000000 -0.674612
vertex -0.638195 -0.262864 -0.723610
vertex -0.822619 -0.259891 -0.505725
endloop
endfacet
facet normal -0.717008 -0.351251 -0.602098
outer loop
vertex -0.638195 -0.262864 -0.723610
vertex -0.688189 -0.499997 -0.525736
vertex -0.822619 -0.259891 -0.505725
endloop
endfacet
facet normal -0.717008 0.351252 -0.602098
outer loop
vertex -0.638195 0.262864 -0.723610
vertex -0.822618 0.259891 -0.505725
vertex -0.688189 0.499997 -0.525736
endloop
endfacet
facet normal -0.753547 0.168148 -0.635525
outer loop
vertex -0.638195 0.262864 -0.723610
vertex -0.738175 0.000000 -0.674612
vertex -0.822618 0.259891 -0.505725
endloop
endfacet
facet normal -0.820075 0.099727 -0.563499
outer loop
vertex -0.738175 0.000000 -0.674612
vertex -0.894426 0.000000 -0.447216
vertex -0.822618 0.259891 -0.505725
endloop
endfacet
facet normal -0.598707 0.434988 -0.672559
outer loop
vertex -0.447211 0.525728 -0.723612
vertex -0.638195 0.262864 -0.723610
vertex -0.688189 0.499997 -0.525736
endloop
endfacet
facet normal -0.491117 0.356818 -0.794660
outer loop
vertex -0.447211 0.525728 -0.723612
vertex -0.361800 0.262863 -0.894429
vertex -0.638195 0.262864 -0.723610
endloop
endfacet
facet normal -0.516842 0.183045 -0.836283
outer loop
vertex -0.361800 0.262863 -0.894429
vertex -0.525730 0.000000 -0.850652
vertex -0.638195 0.262864 -0.723610
endloop
endfacet
facet normal -0.348259 0.749115 -0.563508
outer loop
vertex -0.228104 0.702043 -0.674614
vertex -0.501372 0.702044 -0.505727
vertex -0.276388 0.850649 -0.447220
endloop
endfacet
facet normal -0.392770 0.664707 -0.635529
outer loop
vertex -0.228104 0.702043 -0.674614
vertex -0.447211 0.525728 -0.723612
vertex -0.501372 0.702044 -0.505727
endloop
endfacet
facet normal -0.555627 0.573371 -0.602100
outer loop
vertex -0.447211 0.525728 -0.723612
vertex -0.688189 0.499997 -0.525736
vertex -0.501372 0.702044 -0.505727
endloop
endfacet
facet normal 0.112493 0.790457 -0.602099
outer loop
vertex 0.052790 0.688186 -0.723612
vertex -0.007027 0.862664 -0.505727
vertex 0.262869 0.809012 -0.525738
endloop
endfacet
facet normal -0.072939 0.768627 -0.635526
outer loop
vertex 0.052790 0.688186 -0.723612
vertex -0.228104 0.702043 -0.674614
vertex -0.007027 0.862664 -0.505727
endloop
endfacet
facet normal -0.158561 0.810751 -0.563509
outer loop
vertex -0.228104 0.702043 -0.674614
vertex -0.276388 0.850649 -0.447220
vertex -0.007027 0.862664 -0.505727
endloop
endfacet
facet normal 0.228688 0.703822 -0.672560
outer loop
vertex 0.361804 0.587780 -0.723612
vertex 0.052790 0.688186 -0.723612
vertex 0.262869 0.809012 -0.525738
endloop
endfacet
facet normal 0.187590 0.577340 -0.794662
outer loop
vertex 0.361804 0.587780 -0.723612
vertex 0.138197 0.425319 -0.894429
vertex 0.052790 0.688186 -0.723612
endloop
endfacet
facet normal 0.014377 0.548109 -0.836283
outer loop
vertex 0.138197 0.425319 -0.894429
vertex -0.162456 0.499995 -0.850654
vertex 0.052790 0.688186 -0.723612
endloop
endfacet
facet normal 0.604839 0.562704 -0.563502
outer loop
vertex 0.597197 0.433883 -0.674615
vertex 0.512755 0.693775 -0.505727
vertex 0.723607 0.525725 -0.447220
endloop
endfacet
facet normal 0.510798 0.578955 -0.635528
outer loop
vertex 0.597197 0.433883 -0.674615
vertex 0.361804 0.587780 -0.723612
vertex 0.512755 0.693775 -0.505727
endloop
endfacet
facet normal 0.373612 0.705612 -0.602101
outer loop
vertex 0.361804 0.587780 -0.723612
vertex 0.262869 0.809012 -0.525738
vertex 0.512755 0.693775 -0.505727
endloop
endfacet
facet normal 0.941002 0.293378 -0.168655
outer loop
vertex 0.947212 0.162457 -0.276395
vertex 0.870464 0.433883 -0.232457
vertex 0.951058 0.309013 0.000000
endloop
endfacet
facet normal 0.885268 0.306887 -0.349457
outer loop
vertex 0.947212 0.162457 -0.276395
vertex 0.818272 0.273263 -0.505726
vertex 0.870464 0.433883 -0.232457
endloop
endfacet
facet normal 0.826934 0.401341 -0.393834
outer loop
vertex 0.818272 0.273263 -0.505726
vertex 0.723607 0.525725 -0.447220
vertex 0.870464 0.433883 -0.232457
endloop
endfacet
facet normal 0.983105 0.155702 -0.096239
outer loop
vertex 0.999998 0.000000 0.000000
vertex 0.947212 0.162457 -0.276395
vertex 0.951058 0.309013 0.000000
endloop
endfacet
facet normal 0.982247 0.000000 -0.187592
outer loop
vertex 0.999998 0.000000 0.000000
vertex 0.947212 -0.162457 -0.276395
vertex 0.947212 0.162457 -0.276395
endloop
endfacet
facet normal 0.932511 0.000000 -0.361141
outer loop
vertex 0.947212 -0.162457 -0.276395
vertex 0.850648 0.000000 -0.525736
vertex 0.947212 0.162457 -0.276395
endloop
endfacet
facet normal 0.957338 0.000000 0.288972
outer loop
vertex 0.959252 -0.160619 0.232455
vertex 0.959252 0.160619 0.232455
vertex 0.894426 0.000000 0.447216
endloop
endfacet
facet normal 0.984982 0.000000 0.172657
outer loop
vertex 0.959252 -0.160619 0.232455
vertex 0.999998 0.000000 0.000000
vertex 0.959252 0.160619 0.232455
endloop
endfacet
facet normal 0.985607 0.156098 0.064907
outer loop
vertex 0.999998 0.000000 0.000000
vertex 0.951058 0.309013 0.000000
vertex 0.959252 0.160619 0.232455
endloop
endfacet
facet normal 0.569809 -0.804285 -0.168653
outer loop
vertex 0.447215 -0.850648 -0.276396
vertex 0.681641 -0.693778 -0.232458
vertex 0.587786 -0.809017 0.000000
endloop
endfacet
facet normal 0.565433 -0.747104 -0.349458
outer loop
vertex 0.447215 -0.850648 -0.276396
vertex 0.512755 -0.693775 -0.505727
vertex 0.681641 -0.693778 -0.232458
endloop
endfacet
facet normal 0.637242 -0.662431 -0.393837
outer loop
vertex 0.512755 -0.693775 -0.505727
vertex 0.723607 -0.525725 -0.447220
vertex 0.681641 -0.693778 -0.232458
endloop
endfacet
facet normal 0.451878 -0.886874 -0.096236
outer loop
vertex 0.309017 -0.951055 0.000000
vertex 0.447215 -0.850648 -0.276396
vertex 0.587786 -0.809017 0.000000
endloop
endfacet
facet normal 0.303535 -0.934172 -0.187591
outer loop
vertex 0.309017 -0.951055 0.000000
vertex 0.138198 -0.951054 -0.276397
vertex 0.447215 -0.850648 -0.276396
endloop
endfacet
facet normal 0.288165 -0.886869 -0.361143
outer loop
vertex 0.138198 -0.951054 -0.276397
vertex 0.262869 -0.809012 -0.525738
vertex 0.447215 -0.850648 -0.276396
endloop
endfacet
facet normal 0.295831 -0.910481 0.288978
outer loop
vertex 0.143662 -0.961938 0.232458
vertex 0.449184 -0.862669 0.232458
vertex 0.276388 -0.850649 0.447220
endloop
endfacet
facet normal 0.304374 -0.936775 0.172654
outer loop
vertex 0.143662 -0.961938 0.232458
vertex 0.309017 -0.951055 0.000000
vertex 0.449184 -0.862669 0.232458
endloop
endfacet
facet normal 0.453028 -0.889130 0.064902
outer loop
vertex 0.309017 -0.951055 0.000000
vertex 0.587786 -0.809017 0.000000
vertex 0.449184 -0.862669 0.232458
endloop
endfacet
facet normal -0.588837 -0.790460 -0.168652
outer loop
vertex -0.670820 -0.688190 -0.276396
vertex -0.449184 -0.862669 -0.232458
vertex -0.587786 -0.809017 0.000000
endloop
endfacet
facet normal -0.535805 -0.768628 -0.349462
outer loop
vertex -0.670820 -0.688190 -0.276396
vertex -0.501372 -0.702044 -0.505727
vertex -0.449184 -0.862669 -0.232458
endloop
endfacet
facet normal -0.433095 -0.810753 -0.393838
outer loop
vertex -0.501372 -0.702044 -0.505727
vertex -0.276388 -0.850649 -0.447220
vertex -0.449184 -0.862669 -0.232458
endloop
endfacet
facet normal -0.703820 -0.703829 -0.096238
outer loop
vertex -0.809021 -0.587785 0.000000
vertex -0.670820 -0.688190 -0.276396
vertex -0.587786 -0.809017 0.000000
endloop
endfacet
facet normal -0.794654 -0.577348 -0.187602
outer loop
vertex -0.809021 -0.587785 0.000000
vertex -0.861804 -0.425322 -0.276396
vertex -0.670820 -0.688190 -0.276396
endloop
endfacet
facet normal -0.754417 -0.548114 -0.361145
outer loop
vertex -0.861804 -0.425322 -0.276396
vertex -0.688189 -0.499997 -0.525736
vertex -0.670820 -0.688190 -0.276396
endloop
endfacet
facet normal -0.774505 -0.562703 0.288976
outer loop
vertex -0.870464 -0.433883 0.232457
vertex -0.681641 -0.693778 0.232458
vertex -0.723607 -0.525725 0.447220
endloop
endfacet
facet normal -0.796869 -0.578951 0.172674
outer loop
vertex -0.870464 -0.433883 0.232457
vertex -0.809021 -0.587785 0.000000
vertex -0.681641 -0.693778 0.232458
endloop
endfacet
facet normal -0.705611 -0.705620 0.064911
outer loop
vertex -0.809021 -0.587785 0.000000
vertex -0.587786 -0.809017 0.000000
vertex -0.681641 -0.693778 0.232458
endloop
endfacet
facet normal -0.933734 0.315748 -0.168652
outer loop
vertex -0.861804 0.425322 -0.276396
vertex -0.959252 0.160619 -0.232455
vertex -0.951058 0.309013 0.000000
endloop
endfacet
facet normal -0.896585 0.272057 -0.349457
outer loop
vertex -0.861804 0.425322 -0.276396
vertex -0.822618 0.259891 -0.505725
vertex -0.959252 0.160619 -0.232455
endloop
endfacet
facet normal -0.904909 0.161364 -0.393830
outer loop
vertex -0.822618 0.259891 -0.505725
vertex -0.894426 0.000000 -0.447216
vertex -0.959252 0.160619 -0.232455
endloop
endfacet
facet normal -0.886876 0.451873 -0.096238
outer loop
vertex -0.809021 0.587785 0.000000
vertex -0.861804 0.425322 -0.276396
vertex -0.951058 0.309013 0.000000
endloop
endfacet
facet normal -0.794654 0.577348 -0.187602
outer loop
vertex -0.809021 0.587785 0.000000
vertex -0.670820 0.688190 -0.276396
vertex -0.861804 0.425322 -0.276396
endloop
endfacet
facet normal -0.754417 0.548114 -0.361145
outer loop
vertex -0.670820 0.688190 -0.276396
vertex -0.688189 0.499997 -0.525736
vertex -0.861804 0.425322 -0.276396
endloop
endfacet
facet normal -0.774505 0.562703 0.288976
outer loop
vertex -0.681641 0.693778 0.232458
vertex -0.870464 0.433883 0.232457
vertex -0.723607 0.525725 0.447220
endloop
endfacet
facet normal -0.796869 0.578951 0.172674
outer loop
vertex -0.681641 0.693778 0.232458
vertex -0.809021 0.587785 0.000000
vertex -0.870464 0.433883 0.232457
endloop
endfacet
facet normal -0.889133 0.453023 0.064914
outer loop
vertex -0.809021 0.587785 0.000000
vertex -0.951058 0.309013 0.000000
vertex -0.870464 0.433883 0.232457
endloop
endfacet
facet normal 0.011765 0.985605 -0.168652
outer loop
vertex 0.138198 0.951054 -0.276397
vertex -0.143662 0.961938 -0.232458
vertex 0.000000 1.000000 0.000000
endloop
endfacet
facet normal -0.018307 0.936770 -0.349466
outer loop
vertex 0.138198 0.951054 -0.276397
vertex -0.007027 0.862664 -0.505727
vertex -0.143662 0.961938 -0.232458
endloop
endfacet
facet normal -0.126156 0.910481 -0.393840
outer loop
vertex -0.007027 0.862664 -0.505727
vertex -0.276388 0.850649 -0.447220
vertex -0.143662 0.961938 -0.232458
endloop
endfacet
facet normal 0.155714 0.983103 -0.096234
outer loop
vertex 0.309017 0.951055 0.000000
vertex 0.138198 0.951054 -0.276397
vertex 0.000000 1.000000 0.000000
endloop
endfacet
facet normal 0.303535 0.934172 -0.187591
outer loop
vertex 0.309017 0.951055 0.000000
vertex 0.447215 0.850648 -0.276396
vertex 0.138198 0.951054 -0.276397
endloop
endfacet
facet normal 0.288165 0.886869 -0.361143
outer loop
vertex 0.447215 0.850648 -0.276396
vertex 0.262869 0.809012 -0.525738
vertex 0.138198 0.951054 -0.276397
endloop
endfacet
facet normal 0.295831 0.910481 0.288978
outer loop
vertex 0.449184 0.862669 0.232458
vertex 0.143662 0.961938 0.232458
vertex 0.276388 0.850649 0.447220
endloop
endfacet
facet normal 0.304374 0.936775 0.172654
outer loop
vertex 0.449184 0.862669 0.232458
vertex 0.309017 0.951055 0.000000
vertex 0.143662 0.961938 0.232458
endloop
endfacet
facet normal 0.156110 0.985605 0.064902
outer loop
vertex 0.309017 0.951055 0.000000
vertex 0.000000 1.000000 0.000000
vertex 0.143662 0.961938 0.232458
endloop
endfacet
facet normal 0.800940 -0.412234 0.434233
outer loop
vertex 0.861804 -0.425322 0.276396
vertex 0.822618 -0.259891 0.505725
vertex 0.688189 -0.499997 0.525736
endloop
endfacet
facet normal 0.896585 -0.272057 0.349457
outer loop
vertex 0.861804 -0.425322 0.276396
vertex 0.959252 -0.160619 0.232455
vertex 0.822618 -0.259891 0.505725
endloop
endfacet
facet normal 0.904909 -0.161364 0.393830
outer loop
vertex 0.959252 -0.160619 0.232455
vertex 0.894426 0.000000 0.447216
vertex 0.822618 -0.259891 0.505725
endloop
endfacet
facet normal 0.754417 -0.548114 0.361145
outer loop
vertex 0.670820 -0.688190 0.276396
vertex 0.861804 -0.425322 0.276396
vertex 0.688189 -0.499997 0.525736
endloop
endfacet
facet normal 0.794654 -0.577348 0.187602
outer loop
vertex 0.670820 -0.688190 0.276396
vertex 0.809021 -0.587785 0.000000
vertex 0.861804 -0.425322 0.276396
endloop
endfacet
facet normal 0.886876 -0.451873 0.096238
outer loop
vertex 0.809021 -0.587785 0.000000
vertex 0.951058 -0.309013 0.000000
vertex 0.861804 -0.425322 0.276396
endloop
endfacet
facet normal 0.433094 -0.810753 0.393838
outer loop
vertex 0.449184 -0.862669 0.232458
vertex 0.501372 -0.702044 0.505727
vertex 0.276388 -0.850649 0.447220
endloop
endfacet
facet normal 0.535805 -0.768628 0.349462
outer loop
vertex 0.449184 -0.862669 0.232458
vertex 0.670820 -0.688190 0.276396
vertex 0.501372 -0.702044 0.505727
endloop
endfacet
facet normal 0.639559 -0.634353 0.434235
outer loop
vertex 0.670820 -0.688190 0.276396
vertex 0.688189 -0.499997 0.525736
vertex 0.501372 -0.702044 0.505727
endloop
endfacet
facet normal -0.144553 -0.889126 0.434235
outer loop
vertex -0.138198 -0.951054 0.276397
vertex 0.007027 -0.862664 0.505727
vertex -0.262869 -0.809012 0.525738
endloop
endfacet
facet normal 0.018307 -0.936770 0.349466
outer loop
vertex -0.138198 -0.951054 0.276397
vertex 0.143662 -0.961938 0.232458
vertex 0.007027 -0.862664 0.505727
endloop
endfacet
facet normal 0.126156 -0.910480 0.393840
outer loop
vertex 0.143662 -0.961938 0.232458
vertex 0.276388 -0.850649 0.447220
vertex 0.007027 -0.862664 0.505727
endloop
endfacet
facet normal -0.288165 -0.886869 0.361143
outer loop
vertex -0.447215 -0.850648 0.276396
vertex -0.138198 -0.951054 0.276397
vertex -0.262869 -0.809012 0.525738
endloop
endfacet
facet normal -0.303535 -0.934172 0.187591
outer loop
vertex -0.447215 -0.850648 0.276396
vertex -0.309017 -0.951055 0.000000
vertex -0.138198 -0.951054 0.276397
endloop
endfacet
facet normal -0.155714 -0.983103 0.096234
outer loop
vertex -0.309017 -0.951055 0.000000
vertex 0.000000 -1.000000 0.000000
vertex -0.138198 -0.951054 0.276397
endloop
endfacet
facet normal -0.637242 -0.662431 0.393836
outer loop
vertex -0.681641 -0.693778 0.232458
vertex -0.512755 -0.693775 0.505727
vertex -0.723607 -0.525725 0.447220
endloop
endfacet
facet normal -0.565433 -0.747104 0.349458
outer loop
vertex -0.681641 -0.693778 0.232458
vertex -0.447215 -0.850648 0.276396
vertex -0.512755 -0.693775 0.505727
endloop
endfacet
facet normal -0.405672 -0.804285 0.434230
outer loop
vertex -0.447215 -0.850648 0.276396
vertex -0.262869 -0.809012 0.525738
vertex -0.512755 -0.693775 0.505727
endloop
endfacet
facet normal -0.890282 -0.137276 0.434228
outer loop
vertex -0.947212 -0.162457 0.276395
vertex -0.818272 -0.273263 0.505726
vertex -0.850648 0.000000 0.525736
endloop
endfacet
facet normal -0.885268 -0.306887 0.349457
outer loop
vertex -0.947212 -0.162457 0.276395
vertex -0.870464 -0.433883 0.232457
vertex -0.818272 -0.273263 0.505726
endloop
endfacet
facet normal -0.826934 -0.401341 0.393834
outer loop
vertex -0.870464 -0.433883 0.232457
vertex -0.723607 -0.525725 0.447220
vertex -0.818272 -0.273263 0.505726
endloop
endfacet
facet normal -0.932511 0.000000 0.361141
outer loop
vertex -0.947212 0.162457 0.276395
vertex -0.947212 -0.162457 0.276395
vertex -0.850648 0.000000 0.525736
endloop
endfacet
facet normal -0.982247 0.000000 0.187592
outer loop
vertex -0.947212 0.162457 0.276395
vertex -0.999998 0.000000 0.000000
vertex -0.947212 -0.162457 0.276395
endloop
endfacet
facet normal -0.983105 -0.155702 0.096239
outer loop
vertex -0.999998 0.000000 0.000000
vertex -0.951058 -0.309013 0.000000
vertex -0.947212 -0.162457 0.276395
endloop
endfacet
facet normal -0.826935 0.401341 0.393833
outer loop
vertex -0.870464 0.433883 0.232457
vertex -0.818272 0.273263 0.505726
vertex -0.723607 0.525725 0.447220
endloop
endfacet
facet normal -0.885268 0.306887 0.349457
outer loop
vertex -0.870464 0.433883 0.232457
vertex -0.947212 0.162457 0.276395
vertex -0.818272 0.273263 0.505726
endloop
endfacet
facet normal -0.890282 0.137276 0.434228
outer loop
vertex -0.947212 0.162457 0.276395
vertex -0.850648 0.000000 0.525736
vertex -0.818272 0.273263 0.505726
endloop
endfacet
facet normal -0.405672 0.804285 0.434230
outer loop
vertex -0.447215 0.850648 0.276396
vertex -0.512755 0.693775 0.505727
vertex -0.262869 0.809012 0.525738
endloop
endfacet
facet normal -0.565433 0.747104 0.349458
outer loop
vertex -0.447215 0.850648 0.276396
vertex -0.681641 0.693778 0.232458
vertex -0.512755 0.693775 0.505727
endloop
endfacet
facet normal -0.637242 0.662432 0.393836
outer loop
vertex -0.681641 0.693778 0.232458
vertex -0.723607 0.525725 0.447220
vertex -0.512755 0.693775 0.505727
endloop
endfacet
facet normal -0.288165 0.886869 0.361143
outer loop
vertex -0.138198 0.951054 0.276397
vertex -0.447215 0.850648 0.276396
vertex -0.262869 0.809012 0.525738
endloop
endfacet
facet normal -0.303535 0.934172 0.187591
outer loop
vertex -0.138198 0.951054 0.276397
vertex -0.309017 0.951055 0.000000
vertex -0.447215 0.850648 0.276396
endloop
endfacet
facet normal -0.451878 0.886874 0.096236
outer loop
vertex -0.309017 0.951055 0.000000
vertex -0.587786 0.809017 0.000000
vertex -0.447215 0.850648 0.276396
endloop
endfacet
facet normal 0.126156 0.910480 0.393840
outer loop
vertex 0.143662 0.961938 0.232458
vertex 0.007027 0.862664 0.505727
vertex 0.276388 0.850649 0.447220
endloop
endfacet
facet normal 0.018307 0.936770 0.349466
outer loop
vertex 0.143662 0.961938 0.232458
vertex -0.138198 0.951054 0.276397
vertex 0.007027 0.862664 0.505727
endloop
endfacet
facet normal -0.144553 0.889126 0.434235
outer loop
vertex -0.138198 0.951054 0.276397
vertex -0.262869 0.809012 0.525738
vertex 0.007027 0.862664 0.505727
endloop
endfacet
facet normal 0.639559 0.634353 0.434236
outer loop
vertex 0.670820 0.688190 0.276396
vertex 0.501372 0.702044 0.505727
vertex 0.688189 0.499997 0.525736
endloop
endfacet
facet normal 0.535805 0.768628 0.349462
outer loop
vertex 0.670820 0.688190 0.276396
vertex 0.449184 0.862669 0.232458
vertex 0.501372 0.702044 0.505727
endloop
endfacet
facet normal 0.433095 0.810753 0.393838
outer loop
vertex 0.449184 0.862669 0.232458
vertex 0.276388 0.850649 0.447220
vertex 0.501372 0.702044 0.505727
endloop
endfacet
facet normal 0.754418 0.548114 0.361145
outer loop
vertex 0.861804 0.425322 0.276396
vertex 0.670820 0.688190 0.276396
vertex 0.688189 0.499997 0.525736
endloop
endfacet
facet normal 0.794654 0.577348 0.187602
outer loop
vertex 0.861804 0.425322 0.276396
vertex 0.809021 0.587785 0.000000
vertex 0.670820 0.688190 0.276396
endloop
endfacet
facet normal 0.703820 0.703829 0.096238
outer loop
vertex 0.809021 0.587785 0.000000
vertex 0.587786 0.809017 0.000000
vertex 0.670820 0.688190 0.276396
endloop
endfacet
facet normal 0.904909 0.161364 0.393830
outer loop
vertex 0.959252 0.160619 0.232455
vertex 0.822619 0.259891 0.505725
vertex 0.894426 0.000000 0.447216
endloop
endfacet
facet normal 0.896585 0.272057 0.349456
outer loop
vertex 0.959252 0.160619 0.232455
vertex 0.861804 0.425322 0.276396
vertex 0.822619 0.259891 0.505725
endloop
endfacet
facet normal 0.800940 0.412234 0.434233
outer loop
vertex 0.861804 0.425322 0.276396
vertex 0.688189 0.499997 0.525736
vertex 0.822619 0.259891 0.505725
endloop
endfacet
facet normal 0.634934 -0.098668 0.766240
outer loop
vertex 0.638195 -0.262864 0.723610
vertex 0.738175 0.000000 0.674612
vertex 0.525730 0.000000 0.850652
endloop
endfacet
facet normal 0.753547 -0.168148 0.635526
outer loop
vertex 0.638195 -0.262864 0.723610
vertex 0.822618 -0.259891 0.505725
vertex 0.738175 0.000000 0.674612
endloop
endfacet
facet normal 0.820075 -0.099727 0.563499
outer loop
vertex 0.822618 -0.259891 0.505725
vertex 0.894426 0.000000 0.447216
vertex 0.738175 0.000000 0.674612
endloop
endfacet
facet normal 0.516842 -0.183045 0.836283
outer loop
vertex 0.361800 -0.262863 0.894429
vertex 0.638195 -0.262864 0.723610
vertex 0.525730 0.000000 0.850652
endloop
endfacet
facet normal 0.491117 -0.356818 0.794660
outer loop
vertex 0.361800 -0.262863 0.894429
vertex 0.447211 -0.525728 0.723612
vertex 0.638195 -0.262864 0.723610
endloop
endfacet
facet normal 0.598706 -0.434989 0.672559
outer loop
vertex 0.447211 -0.525728 0.723612
vertex 0.688189 -0.499997 0.525736
vertex 0.638195 -0.262864 0.723610
endloop
endfacet
facet normal 0.137266 -0.099728 0.985501
outer loop
vertex 0.084442 -0.259889 0.961939
vertex 0.273266 0.000000 0.961938
vertex 0.000000 0.000000 1.000000
endloop
endfacet
facet normal 0.231430 -0.168143 0.958211
outer loop
vertex 0.084442 -0.259889 0.961939
vertex 0.361800 -0.262863 0.894429
vertex 0.273266 0.000000 0.961938
endloop
endfacet
facet normal 0.401384 -0.098668 0.910580
outer loop
vertex 0.361800 -0.262863 0.894429
vertex 0.525730 0.000000 0.850652
vertex 0.273266 0.000000 0.961938
endloop
endfacet
facet normal 0.102364 -0.634349 0.766239
outer loop
vertex -0.052790 -0.688186 0.723612
vertex 0.228104 -0.702043 0.674614
vertex 0.162456 -0.499995 0.850654
endloop
endfacet
facet normal 0.072939 -0.768627 0.635526
outer loop
vertex -0.052790 -0.688186 0.723612
vertex 0.007027 -0.862664 0.505727
vertex 0.228104 -0.702043 0.674614
endloop
endfacet
facet normal 0.158561 -0.810751 0.563508
outer loop
vertex 0.007027 -0.862664 0.505727
vertex 0.276388 -0.850649 0.447220
vertex 0.228104 -0.702043 0.674614
endloop
endfacet
facet normal -0.014377 -0.548109 0.836283
outer loop
vertex -0.138197 -0.425319 0.894429
vertex -0.052790 -0.688186 0.723612
vertex 0.162456 -0.499995 0.850654
endloop
endfacet
facet normal -0.187590 -0.577341 0.794662
outer loop
vertex -0.138197 -0.425319 0.894429
vertex -0.361804 -0.587780 0.723612
vertex -0.052790 -0.688186 0.723612
endloop
endfacet
facet normal -0.228687 -0.703822 0.672560
outer loop
vertex -0.361804 -0.587780 0.723612
vertex -0.262869 -0.809012 0.525738
vertex -0.052790 -0.688186 0.723612
endloop
endfacet
facet normal -0.052433 -0.161364 0.985501
outer loop
vertex -0.221075 -0.160619 0.961939
vertex 0.084442 -0.259889 0.961939
vertex 0.000000 0.000000 1.000000
endloop
endfacet
facet normal -0.088401 -0.272061 0.958211
outer loop
vertex -0.221075 -0.160619 0.961939
vertex -0.138197 -0.425319 0.894429
vertex 0.084442 -0.259889 0.961939
endloop
endfacet
facet normal 0.030191 -0.412227 0.910581
outer loop
vertex -0.138197 -0.425319 0.894429
vertex 0.162456 -0.499995 0.850654
vertex 0.084442 -0.259889 0.961939
endloop
endfacet
facet normal -0.571665 -0.293377 0.766243
outer loop
vertex -0.670818 -0.162457 0.723612
vertex -0.597197 -0.433883 0.674615
vertex -0.425323 -0.309011 0.850654
endloop
endfacet
facet normal -0.708470 -0.306887 0.635524
outer loop
vertex -0.670818 -0.162457 0.723612
vertex -0.818272 -0.273263 0.505726
vertex -0.597197 -0.433883 0.674615
endloop
endfacet
facet normal -0.722075 -0.401341 0.563502
outer loop
vertex -0.818272 -0.273263 0.505726
vertex -0.723607 -0.525725 0.447220
vertex -0.597197 -0.433883 0.674615
endloop
endfacet
facet normal -0.525723 -0.155703 0.836284
outer loop
vertex -0.447209 0.000000 0.894429
vertex -0.670818 -0.162457 0.723612
vertex -0.425323 -0.309011 0.850654
endloop
endfacet
facet normal -0.607050 0.000000 0.794664
outer loop
vertex -0.447209 0.000000 0.894429
vertex -0.670818 0.162457 0.723612
vertex -0.670818 -0.162457 0.723612
endloop
endfacet
facet normal -0.740047 0.000000 0.672555
outer loop
vertex -0.670818 0.162457 0.723612
vertex -0.850648 0.000000 0.525736
vertex -0.670818 -0.162457 0.723612
endloop
endfacet
facet normal -0.169669 0.000000 0.985501
outer loop
vertex -0.221075 0.160619 0.961939
vertex -0.221075 -0.160619 0.961939
vertex 0.000000 0.000000 1.000000
endloop
endfacet
facet normal -0.286064 0.000000 0.958211
outer loop
vertex -0.221075 0.160619 0.961939
vertex -0.447209 0.000000 0.894429
vertex -0.221075 -0.160619 0.961939
endloop
endfacet
facet normal -0.382720 -0.156099 0.910582
outer loop
vertex -0.447209 0.000000 0.894429
vertex -0.425323 -0.309011 0.850654
vertex -0.221075 -0.160619 0.961939
endloop
endfacet
facet normal -0.455675 0.453025 0.766243
outer loop
vertex -0.361804 0.587780 0.723612
vertex -0.597197 0.433883 0.674615
vertex -0.425323 0.309011 0.850654
endloop
endfacet
facet normal -0.510798 0.578955 0.635528
outer loop
vertex -0.361804 0.587780 0.723612
vertex -0.512755 0.693775 0.505727
vertex -0.597197 0.433883 0.674615
endloop
endfacet
facet normal -0.604838 0.562704 0.563502
outer loop
vertex -0.512755 0.693775 0.505727
vertex -0.723607 0.525725 0.447220
vertex -0.597197 0.433883 0.674615
endloop
endfacet
facet normal -0.310543 0.451875 0.836285
outer loop
vertex -0.138197 0.425319 0.894429
vertex -0.361804 0.587780 0.723612
vertex -0.425323 0.309011 0.850654
endloop
endfacet
facet normal -0.187590 0.577341 0.794662
outer loop
vertex -0.138197 0.425319 0.894429
vertex -0.052790 0.688186 0.723612
vertex -0.361804 0.587780 0.723612
endloop
endfacet
facet normal -0.228687 0.703822 0.672560
outer loop
vertex -0.052790 0.688186 0.723612
vertex -0.262869 0.809012 0.525738
vertex -0.361804 0.587780 0.723612
endloop
endfacet
facet normal -0.052433 0.161364 0.985501
outer loop
vertex 0.084442 0.259889 0.961939
vertex -0.221075 0.160619 0.961939
vertex 0.000000 0.000000 1.000000
endloop
endfacet
facet normal -0.088401 0.272061 0.958211
outer loop
vertex 0.084442 0.259889 0.961939
vertex -0.138197 0.425319 0.894429
vertex -0.221075 0.160619 0.961939
endloop
endfacet
facet normal -0.266729 0.315749 0.910582
outer loop
vertex -0.138197 0.425319 0.894429
vertex -0.425323 0.309011 0.850654
vertex -0.221075 0.160619 0.961939
endloop
endfacet
facet normal 0.290042 0.573370 0.766239
outer loop
vertex 0.447211 0.525728 0.723612
vertex 0.228104 0.702043 0.674614
vertex 0.162456 0.499995 0.850654
endloop
endfacet
facet normal 0.392770 0.664707 0.635529
outer loop
vertex 0.447211 0.525728 0.723612
vertex 0.501372 0.702044 0.505727
vertex 0.228104 0.702043 0.674614
endloop
endfacet
facet normal 0.348259 0.749115 0.563508
outer loop
vertex 0.501372 0.702044 0.505727
vertex 0.276388 0.850649 0.447220
vertex 0.228104 0.702043 0.674614
endloop
endfacet
facet normal 0.333797 0.434983 0.836283
outer loop
vertex 0.361800 0.262863 0.894429
vertex 0.447211 0.525728 0.723612
vertex 0.162456 0.499995 0.850654
endloop
endfacet
facet normal 0.491117 0.356818 0.794660
outer loop
vertex 0.361800 0.262863 0.894429
vertex 0.638195 0.262864 0.723610
vertex 0.447211 0.525728 0.723612
endloop
endfacet
facet normal 0.598706 0.434989 0.672559
outer loop
vertex 0.638195 0.262864 0.723610
vertex 0.688189 0.499997 0.525736
vertex 0.447211 0.525728 0.723612
endloop
endfacet
facet normal 0.137266 0.099728 0.985501
outer loop
vertex 0.273266 0.000000 0.961938
vertex 0.084442 0.259889 0.961939
vertex 0.000000 0.000000 1.000000
endloop
endfacet
facet normal 0.231430 0.168143 0.958211
outer loop
vertex 0.273266 0.000000 0.961938
vertex 0.361800 0.262863 0.894429
vertex 0.084442 0.259889 0.961939
endloop
endfacet
facet normal 0.217874 0.351246 0.910581
outer loop
vertex 0.361800 0.262863 0.894429
vertex 0.162456 0.499995 0.850654
vertex 0.084442 0.259889 0.961939
endloop
endfacet
facet normal 0.634934 0.098668 0.766240
outer loop
vertex 0.738175 0.000000 0.674612
vertex 0.638195 0.262864 0.723610
vertex 0.525730 0.000000 0.850652
endloop
endfacet
facet normal 0.753547 0.168148 0.635526
outer loop
vertex 0.738175 0.000000 0.674612
vertex 0.822619 0.259891 0.505725
vertex 0.638195 0.262864 0.723610
endloop
endfacet
facet normal 0.717008 0.351251 0.602098
outer loop
vertex 0.822619 0.259891 0.505725
vertex 0.688189 0.499997 0.525736
vertex 0.638195 0.262864 0.723610
endloop
endfacet
facet normal 0.102364 0.634349 0.766239
outer loop
vertex 0.228104 0.702043 0.674614
vertex -0.052790 0.688186 0.723612
vertex 0.162456 0.499995 0.850654
endloop
endfacet
facet normal 0.072939 0.768626 0.635526
outer loop
vertex 0.228104 0.702043 0.674614
vertex 0.007027 0.862664 0.505727
vertex -0.052790 0.688186 0.723612
endloop
endfacet
facet normal -0.112492 0.790457 0.602099
outer loop
vertex 0.007027 0.862664 0.505727
vertex -0.262869 0.809012 0.525738
vertex -0.052790 0.688186 0.723612
endloop
endfacet
facet normal -0.571665 0.293377 0.766243
outer loop
vertex -0.597197 0.433883 0.674615
vertex -0.670818 0.162457 0.723612
vertex -0.425323 0.309011 0.850654
endloop
endfacet
facet normal -0.708470 0.306888 0.635524
outer loop
vertex -0.597197 0.433883 0.674615
vertex -0.818272 0.273263 0.505726
vertex -0.670818 0.162457 0.723612
endloop
endfacet
facet normal -0.786533 0.137276 0.602097
outer loop
vertex -0.818272 0.273263 0.505726
vertex -0.850648 0.000000 0.525736
vertex -0.670818 0.162457 0.723612
endloop
endfacet
facet normal -0.455675 -0.453025 0.766243
outer loop
vertex -0.597197 -0.433883 0.674615
vertex -0.361804 -0.587780 0.723612
vertex -0.425323 -0.309011 0.850654
endloop
endfacet
facet normal -0.510798 -0.578955 0.635528
outer loop
vertex -0.597197 -0.433883 0.674615
vertex -0.512755 -0.693775 0.505727
vertex -0.361804 -0.587780 0.723612
endloop
endfacet
facet normal -0.373612 -0.705612 0.602101
outer loop
vertex -0.512755 -0.693775 0.505727
vertex -0.262869 -0.809012 0.525738
vertex -0.361804 -0.587780 0.723612
endloop
endfacet
facet normal 0.290042 -0.573370 0.766239
outer loop
vertex 0.228104 -0.702043 0.674614
vertex 0.447211 -0.525728 0.723612
vertex 0.162456 -0.499995 0.850654
endloop
endfacet
facet normal 0.392770 -0.664707 0.635529
outer loop
vertex 0.228104 -0.702043 0.674614
vertex 0.501372 -0.702044 0.505727
vertex 0.447211 -0.525728 0.723612
endloop
endfacet
facet normal 0.555627 -0.573371 0.602101
outer loop
vertex 0.501372 -0.702044 0.505727
vertex 0.688189 -0.499997 0.525736
vertex 0.447211 -0.525728 0.723612
endloop
endfacet
facet normal 0.889133 0.453023 -0.064914
outer loop
vertex 0.870464 0.433883 -0.232457
vertex 0.809021 0.587785 0.000000
vertex 0.951058 0.309013 0.000000
endloop
endfacet
facet normal 0.796869 0.578951 -0.172674
outer loop
vertex 0.870464 0.433883 -0.232457
vertex 0.681641 0.693778 -0.232458
vertex 0.809021 0.587785 0.000000
endloop
endfacet
facet normal 0.705611 0.705620 -0.064911
outer loop
vertex 0.681641 0.693778 -0.232458
vertex 0.587786 0.809017 0.000000
vertex 0.809021 0.587785 0.000000
endloop
endfacet
facet normal -0.156110 0.985605 -0.064903
outer loop
vertex -0.143662 0.961938 -0.232458
vertex -0.309017 0.951055 0.000000
vertex 0.000000 1.000000 0.000000
endloop
endfacet
facet normal -0.304374 0.936775 -0.172654
outer loop
vertex -0.143662 0.961938 -0.232458
vertex -0.449184 0.862669 -0.232458
vertex -0.309017 0.951055 0.000000
endloop
endfacet
facet normal -0.453028 0.889130 -0.064903
outer loop
vertex -0.449184 0.862669 -0.232458
vertex -0.587786 0.809017 0.000000
vertex -0.309017 0.951055 0.000000
endloop
endfacet
facet normal -0.985607 0.156098 -0.064907
outer loop
vertex -0.959252 0.160619 -0.232455
vertex -0.999998 0.000000 0.000000
vertex -0.951058 0.309013 0.000000
endloop
endfacet
facet normal -0.984982 0.000000 -0.172657
outer loop
vertex -0.959252 0.160619 -0.232455
vertex -0.959252 -0.160619 -0.232455
vertex -0.999998 0.000000 0.000000
endloop
endfacet
facet normal -0.985607 -0.156098 -0.064907
outer loop
vertex -0.959252 -0.160619 -0.232455
vertex -0.951058 -0.309013 0.000000
vertex -0.999998 0.000000 0.000000
endloop
endfacet
facet normal -0.453028 -0.889130 -0.064903
outer loop
vertex -0.449184 -0.862669 -0.232458
vertex -0.309017 -0.951055 0.000000
vertex -0.587786 -0.809017 0.000000
endloop
endfacet
facet normal -0.304374 -0.936775 -0.172654
outer loop
vertex -0.449184 -0.862669 -0.232458
vertex -0.143662 -0.961938 -0.232458
vertex -0.309017 -0.951055 0.000000
endloop
endfacet
facet normal -0.156110 -0.985605 -0.064903
outer loop
vertex -0.143662 -0.961938 -0.232458
vertex 0.000000 -1.000000 0.000000
vertex -0.309017 -0.951055 0.000000
endloop
endfacet
facet normal 0.705611 -0.705620 -0.064911
outer loop
vertex 0.681641 -0.693778 -0.232458
vertex 0.809021 -0.587785 0.000000
vertex 0.587786 -0.809017 0.000000
endloop
endfacet
facet normal 0.796869 -0.578951 -0.172674
outer loop
vertex 0.681641 -0.693778 -0.232458
vertex 0.870464 -0.433883 -0.232457
vertex 0.809021 -0.587785 0.000000
endloop
endfacet
facet normal 0.889133 -0.453023 -0.064914
outer loop
vertex 0.870464 -0.433883 -0.232457
vertex 0.951058 -0.309013 0.000000
vertex 0.809021 -0.587785 0.000000
endloop
endfacet
facet normal 0.569809 0.804285 -0.168653
outer loop
vertex 0.681641 0.693778 -0.232458
vertex 0.447215 0.850648 -0.276396
vertex 0.587786 0.809017 0.000000
endloop
endfacet
facet normal 0.565433 0.747104 -0.349458
outer loop
vertex 0.681641 0.693778 -0.232458
vertex 0.512755 0.693775 -0.505727
vertex 0.447215 0.850648 -0.276396
endloop
endfacet
facet normal 0.405673 0.804285 -0.434230
outer loop
vertex 0.512755 0.693775 -0.505727
vertex 0.262869 0.809012 -0.525738
vertex 0.447215 0.850648 -0.276396
endloop
endfacet
facet normal -0.588837 0.790460 -0.168651
outer loop
vertex -0.449184 0.862669 -0.232458
vertex -0.670820 0.688190 -0.276396
vertex -0.587786 0.809017 0.000000
endloop
endfacet
facet normal -0.535805 0.768628 -0.349462
outer loop
vertex -0.449184 0.862669 -0.232458
vertex -0.501372 0.702044 -0.505727
vertex -0.670820 0.688190 -0.276396
endloop
endfacet
facet normal -0.639559 0.634353 -0.434235
outer loop
vertex -0.501372 0.702044 -0.505727
vertex -0.688189 0.499997 -0.525736
vertex -0.670820 0.688190 -0.276396
endloop
endfacet
facet normal -0.933735 -0.315747 -0.168652
outer loop
vertex -0.959252 -0.160619 -0.232455
vertex -0.861804 -0.425322 -0.276396
vertex -0.951058 -0.309013 0.000000
endloop
endfacet
facet normal -0.896585 -0.272057 -0.349456
outer loop
vertex -0.959252 -0.160619 -0.232455
vertex -0.822619 -0.259891 -0.505725
vertex -0.861804 -0.425322 -0.276396
endloop
endfacet
facet normal -0.800940 -0.412234 -0.434233
outer loop
vertex -0.822619 -0.259891 -0.505725
vertex -0.688189 -0.499997 -0.525736
vertex -0.861804 -0.425322 -0.276396
endloop
endfacet
facet normal 0.011765 -0.985605 -0.168652
outer loop
vertex -0.143662 -0.961938 -0.232458
vertex 0.138198 -0.951054 -0.276397
vertex 0.000000 -1.000000 0.000000
endloop
endfacet
facet normal -0.018307 -0.936770 -0.349466
outer loop
vertex -0.143662 -0.961938 -0.232458
vertex -0.007027 -0.862664 -0.505727
vertex 0.138198 -0.951054 -0.276397
endloop
endfacet
facet normal 0.144553 -0.889126 -0.434235
outer loop
vertex -0.007027 -0.862664 -0.505727
vertex 0.262869 -0.809012 -0.525738
vertex 0.138198 -0.951054 -0.276397
endloop
endfacet
facet normal 0.941002 -0.293378 -0.168655
outer loop
vertex 0.870464 -0.433883 -0.232457
vertex 0.947212 -0.162457 -0.276395
vertex 0.951058 -0.309013 0.000000
endloop
endfacet
facet normal 0.885268 -0.306887 -0.349457
outer loop
vertex 0.870464 -0.433883 -0.232457
vertex 0.818272 -0.273263 -0.505726
vertex 0.947212 -0.162457 -0.276395
endloop
endfacet
facet normal 0.890282 -0.137276 -0.434228
outer loop
vertex 0.818272 -0.273263 -0.505726
vertex 0.850648 0.000000 -0.525736
vertex 0.947212 -0.162457 -0.276395
endloop
endfacet
facet normal 0.266729 0.315749 -0.910581
outer loop
vertex 0.221075 0.160619 -0.961939
vertex 0.138197 0.425319 -0.894429
vertex 0.425323 0.309011 -0.850654
endloop
endfacet
facet normal 0.088401 0.272061 -0.958211
outer loop
vertex 0.221075 0.160619 -0.961939
vertex -0.084442 0.259889 -0.961939
vertex 0.138197 0.425319 -0.894429
endloop
endfacet
facet normal -0.030191 0.412228 -0.910581
outer loop
vertex -0.084442 0.259889 -0.961939
vertex -0.162456 0.499995 -0.850654
vertex 0.138197 0.425319 -0.894429
endloop
endfacet
facet normal -0.217874 0.351247 -0.910581
outer loop
vertex -0.084442 0.259889 -0.961939
vertex -0.361800 0.262863 -0.894429
vertex -0.162456 0.499995 -0.850654
endloop
endfacet
facet normal -0.231430 0.168143 -0.958211
outer loop
vertex -0.084442 0.259889 -0.961939
vertex -0.273266 0.000000 -0.961938
vertex -0.361800 0.262863 -0.894429
endloop
endfacet
facet normal -0.401384 0.098668 -0.910580
outer loop
vertex -0.273266 0.000000 -0.961938
vertex -0.525730 0.000000 -0.850652
vertex -0.361800 0.262863 -0.894429
endloop
endfacet
facet normal -0.401384 -0.098668 -0.910580
outer loop
vertex -0.273266 0.000000 -0.961938
vertex -0.361800 -0.262863 -0.894429
vertex -0.525730 0.000000 -0.850652
endloop
endfacet
facet normal -0.231430 -0.168143 -0.958211
outer loop
vertex -0.273266 0.000000 -0.961938
vertex -0.084442 -0.259889 -0.961939
vertex -0.361800 -0.262863 -0.894429
endloop
endfacet
facet normal -0.217873 -0.351247 -0.910581
outer loop
vertex -0.084442 -0.259889 -0.961939
vertex -0.162456 -0.499995 -0.850654
vertex -0.361800 -0.262863 -0.894429
endloop
endfacet
facet normal 0.786533 -0.137276 -0.602097
outer loop
vertex 0.818272 -0.273263 -0.505726
vertex 0.670818 -0.162457 -0.723612
vertex 0.850648 0.000000 -0.525736
endloop
endfacet
facet normal 0.708470 -0.306887 -0.635523
outer loop
vertex 0.818272 -0.273263 -0.505726
vertex 0.597197 -0.433883 -0.674615
vertex 0.670818 -0.162457 -0.723612
endloop
endfacet
facet normal 0.571665 -0.293377 -0.766243
outer loop
vertex 0.597197 -0.433883 -0.674615
vertex 0.425323 -0.309011 -0.850654
vertex 0.670818 -0.162457 -0.723612
endloop
endfacet
facet normal -0.030191 -0.412228 -0.910581
outer loop
vertex -0.084442 -0.259889 -0.961939
vertex 0.138197 -0.425319 -0.894429
vertex -0.162456 -0.499995 -0.850654
endloop
endfacet
facet normal 0.088401 -0.272061 -0.958211
outer loop
vertex -0.084442 -0.259889 -0.961939
vertex 0.221075 -0.160619 -0.961939
vertex 0.138197 -0.425319 -0.894429
endloop
endfacet
facet normal 0.266729 -0.315749 -0.910581
outer loop
vertex 0.221075 -0.160619 -0.961939
vertex 0.425323 -0.309011 -0.850654
vertex 0.138197 -0.425319 -0.894429
endloop
endfacet
endsolid Exported from Blender-2.82 (sub 7)
